<svg width="493" height="532" viewBox="0 0 493 532" fill="none" xmlns="http://www.w3.org/2000/svg">
<path d="M315.608 126.422H312.686V46.347C312.686 34.055 307.805 22.2665 299.116 13.5747C290.427 4.88297 278.643 4.69006e-08 266.355 4.69006e-08H96.7586C90.6741 -0.00027376 84.6493 1.19833 79.0279 3.52736C73.4065 5.85639 68.2988 9.27024 63.9964 13.574C59.6939 17.8777 56.2811 22.9871 53.9526 28.6103C51.6241 34.2335 50.4257 40.2604 50.4257 46.347V485.652C50.4257 497.944 55.3069 509.733 63.9957 518.425C72.6844 527.116 84.4688 531.999 96.7565 531.999H266.354C278.642 531.999 290.426 527.116 299.115 518.425C307.803 509.733 312.684 497.945 312.685 485.653V183.421H315.608V126.422Z" fill="#5F5D5D"/>
<path d="M268.225 12.0531H246.088C247.107 14.5502 247.496 17.2596 247.221 19.9426C246.946 22.6256 246.016 25.1997 244.512 27.4382C243.008 29.6767 240.977 31.5107 238.597 32.7788C236.218 34.0468 233.563 34.7099 230.867 34.7095H133.708C131.012 34.7096 128.357 34.0464 125.978 32.7783C123.598 31.5102 121.567 29.6761 120.064 27.4376C118.56 25.1992 117.63 22.6251 117.355 19.9422C117.08 17.2594 117.469 14.5501 118.488 12.0531H97.8111C88.6351 12.0531 79.8349 15.6995 73.3465 22.1902C66.8581 28.6808 63.213 37.484 63.213 46.6632V485.333C63.213 494.512 66.8581 503.315 73.3465 509.806C79.8349 516.296 88.6351 519.943 97.8111 519.943H268.225C277.401 519.943 286.201 516.296 292.689 509.806C299.178 503.315 302.823 494.512 302.823 485.333V46.6639C302.823 37.4847 299.178 28.6815 292.689 22.1909C286.201 15.7002 277.401 12.0531 268.225 12.0531Z" fill="white"/>
<path d="M132.622 133.854C151.414 133.854 166.647 118.615 166.647 99.8169C166.647 81.0185 151.414 65.7794 132.622 65.7794C113.83 65.7794 98.5962 81.0185 98.5962 99.8169C98.5962 118.615 113.83 133.854 132.622 133.854Z" fill="#6C63FF"/>
<path d="M131.558 116.549C129.42 116.584 127.299 116.163 125.336 115.315C123.372 114.467 121.612 113.211 120.17 111.631C118.729 110.051 117.64 108.182 116.975 106.149C116.311 104.115 116.086 101.964 116.316 99.837C116.769 95.3723 118.845 91.2292 122.148 88.1928C125.452 85.1564 129.754 83.4377 134.239 83.3624C139.218 83.3624 143.312 84.9609 146.082 87.9854C148.711 90.8578 149.941 94.8984 149.548 99.363C149.175 103.593 147.382 105.794 145.941 106.901C145.305 107.418 144.571 107.801 143.783 108.027C142.995 108.253 142.169 108.316 141.356 108.214C140.566 108.073 139.819 107.751 139.174 107.271C138.53 106.792 138.006 106.169 137.644 105.452C137.459 105.668 137.265 105.876 137.062 106.074C135.546 107.488 133.547 108.268 131.475 108.253C130.552 108.262 129.637 108.076 128.79 107.707C127.942 107.339 127.182 106.796 126.559 106.114C125.819 105.259 125.264 104.26 124.93 103.18C124.595 102.099 124.487 100.962 124.614 99.8377C124.79 97.6955 125.688 95.6766 127.16 94.111C127.866 93.347 128.721 92.7356 129.672 92.3143C130.623 91.893 131.65 91.6708 132.691 91.6612C133.607 91.6571 134.516 91.8359 135.363 92.1871C136.21 92.5383 136.978 93.0548 137.623 93.7065L137.693 92.9261C137.725 92.5608 137.901 92.2233 138.181 91.9877C138.462 91.7522 138.825 91.6378 139.19 91.6699C139.555 91.702 139.893 91.8778 140.128 92.1588C140.364 92.4397 140.478 92.8027 140.446 93.1679L139.71 101.485C139.513 103.722 140.307 105.222 141.835 105.491C142.27 105.525 142.709 105.474 143.124 105.338C143.54 105.203 143.925 104.987 144.257 104.703C145.255 103.939 146.506 102.349 146.792 99.1218C147.121 95.3849 146.171 92.179 144.043 89.8563C141.811 87.4156 138.415 86.1264 134.238 86.1264C130.444 86.1997 126.807 87.6582 124.013 90.2273C121.219 92.7964 119.461 96.2987 119.069 100.075C118.872 101.82 119.05 103.587 119.591 105.258C120.132 106.929 121.024 108.464 122.206 109.763C123.389 111.061 124.835 112.091 126.448 112.785C128.06 113.479 129.803 113.82 131.558 113.785C133.724 113.902 135.886 113.51 137.873 112.641C138.041 112.567 138.222 112.528 138.405 112.525C138.589 112.521 138.771 112.555 138.941 112.622C139.111 112.69 139.266 112.791 139.397 112.92C139.528 113.048 139.632 113.201 139.703 113.37C139.775 113.539 139.811 113.721 139.812 113.904C139.812 114.088 139.776 114.269 139.705 114.439C139.635 114.608 139.531 114.761 139.401 114.89C139.27 115.019 139.115 115.121 138.945 115.189C136.859 116.1 134.607 116.569 132.33 116.568C132.072 116.568 131.816 116.562 131.558 116.549ZM132.687 94.4252C129.983 94.4252 127.643 96.9062 127.363 100.08C127.271 100.823 127.332 101.576 127.544 102.293C127.755 103.011 128.113 103.677 128.593 104.25C128.957 104.65 129.402 104.968 129.898 105.182C130.395 105.396 130.931 105.501 131.471 105.491C134 105.491 136.709 103.742 137.051 99.8356C137.13 99.1115 137.059 98.3787 136.842 97.6835C136.624 96.9883 136.265 96.3457 135.786 95.7964C135.396 95.3652 134.92 95.0206 134.388 94.7849C133.856 94.5492 133.281 94.4276 132.7 94.4279L132.687 94.4252Z" fill="white"/>
<path d="M10.7046 145.083C16.6165 145.083 21.4091 140.289 21.4091 134.375C21.4091 128.461 16.6165 123.667 10.7046 123.667C4.79259 123.667 0 128.461 0 134.375C0 140.289 4.79259 145.083 10.7046 145.083Z" fill="#E6E6E6"/>
<path d="M16.5821 134.376L132.006 134.439C132.308 134.439 132.553 134.097 132.553 133.675C132.553 133.253 132.308 132.911 132.006 132.911L16.5821 132.847C16.2799 132.847 16.0353 133.19 16.0353 133.612C16.0353 134.034 16.2799 134.376 16.5821 134.376Z" fill="#E6E6E6"/>
<path d="M224.376 237.878C243.168 237.878 258.402 222.639 258.402 203.84C258.402 185.042 243.168 169.803 224.376 169.803C205.584 169.803 190.351 185.042 190.351 203.84C190.351 222.639 205.584 237.878 224.376 237.878Z" fill="#6C63FF"/>
<path d="M210.249 222.665C210.062 222.374 209.95 222.042 209.923 221.697C209.897 221.353 209.956 221.007 210.096 220.691L212.491 215.351C209.196 212.421 207.098 208.378 206.599 203.997C206.1 199.615 207.235 195.204 209.788 191.608C212.34 188.012 216.129 185.486 220.428 184.512C224.728 183.539 229.235 184.188 233.086 186.334C236.937 188.48 239.861 191.973 241.296 196.142C242.732 200.312 242.578 204.865 240.865 208.928C239.151 212.991 235.999 216.278 232.012 218.16C228.025 220.041 223.484 220.384 219.26 219.123L213.151 223.258C212.923 223.414 212.666 223.524 212.395 223.579C212.124 223.634 211.844 223.634 211.573 223.579C211.302 223.523 211.045 223.414 210.818 223.257C210.59 223.1 210.396 222.899 210.248 222.665L210.249 222.665ZM209.855 196.976C208.805 199.979 208.716 203.235 209.599 206.291C210.482 209.348 212.293 212.054 214.782 214.034L215.535 214.631L212.964 220.38L218.87 216.377L219.453 216.573C221.561 217.283 223.797 217.526 226.008 217.285C228.218 217.044 230.35 216.324 232.255 215.177C234.16 214.029 235.793 212.481 237.04 210.639C238.287 208.798 239.119 206.707 239.477 204.511C239.836 202.316 239.712 200.069 239.116 197.926C238.52 195.783 237.465 193.795 236.024 192.101C234.583 190.406 232.791 189.046 230.772 188.114C228.753 187.181 226.555 186.699 224.332 186.701H224.323C221.144 186.701 218.043 187.689 215.451 189.53C212.858 191.371 210.903 193.973 209.855 196.976ZM228.891 201.211C228.89 200.719 229.036 200.238 229.309 199.828C229.582 199.419 229.97 199.099 230.425 198.911C230.879 198.722 231.38 198.672 231.862 198.768C232.345 198.864 232.788 199.101 233.137 199.448C233.485 199.796 233.722 200.24 233.818 200.722C233.915 201.205 233.865 201.706 233.677 202.161C233.489 202.616 233.17 203.004 232.761 203.278C232.352 203.552 231.871 203.698 231.379 203.698C231.052 203.698 230.729 203.634 230.427 203.51C230.125 203.385 229.85 203.202 229.619 202.971C229.388 202.74 229.205 202.466 229.079 202.164C228.954 201.862 228.891 201.538 228.891 201.211ZM221.845 201.211C221.845 200.719 221.991 200.238 222.264 199.829C222.537 199.42 222.925 199.101 223.38 198.913C223.834 198.724 224.334 198.675 224.816 198.771C225.299 198.867 225.742 199.104 226.09 199.452C226.437 199.799 226.674 200.243 226.77 200.725C226.866 201.208 226.817 201.708 226.629 202.162C226.441 202.617 226.122 203.005 225.713 203.279C225.304 203.552 224.824 203.698 224.332 203.698C224.005 203.698 223.682 203.634 223.38 203.509C223.078 203.384 222.804 203.201 222.573 202.97C222.342 202.739 222.159 202.465 222.034 202.163C221.909 201.861 221.845 201.538 221.845 201.211ZM214.8 201.211C214.8 200.719 214.945 200.238 215.219 199.829C215.492 199.42 215.88 199.101 216.335 198.913C216.789 198.724 217.289 198.675 217.772 198.771C218.254 198.867 218.697 199.104 219.045 199.452C219.393 199.8 219.629 200.244 219.725 200.726C219.821 201.209 219.772 201.709 219.583 202.164C219.395 202.618 219.075 203.007 218.666 203.28C218.257 203.553 217.776 203.698 217.284 203.698C216.958 203.698 216.635 203.634 216.333 203.509C216.032 203.384 215.758 203.2 215.527 202.97C215.296 202.739 215.113 202.465 214.988 202.163C214.863 201.861 214.8 201.538 214.8 201.211Z" fill="white"/>
<path d="M303 529.451C303 529.955 303.187 530.361 303.417 530.361H492.456C492.689 530.361 492.873 529.956 492.873 529.451C492.873 528.946 492.686 528.54 492.456 528.54H303.417C303.187 528.54 303 528.946 303 529.451Z" fill="#E6E6E6"/>
<path d="M423.169 226.159L404.994 232.141V205.966H421.487L423.169 226.159Z" fill="#9F616A"/>
<path d="M407.242 213.21C417.246 213.21 425.356 205.098 425.356 195.09C425.356 185.082 417.246 176.97 407.242 176.97C397.238 176.97 389.128 185.082 389.128 195.09C389.128 205.098 397.238 213.21 407.242 213.21Z" fill="#9F616A"/>
<path d="M411.853 196.512L409.361 199.541L404.845 191.632C404.845 191.632 399.078 191.93 399.078 187.647C399.078 183.364 393.787 183.249 393.787 183.249C393.787 183.249 386.301 170.169 401.808 173.619C401.808 173.619 412.566 166.245 417.911 172.548C417.911 172.548 434.312 180.809 429.617 195.196L421.818 210.027L420.05 206.668C420.05 206.668 421.12 192.579 411.846 196.503L411.853 196.512Z" fill="#090814"/>
<path d="M396.202 493.875H380.191V516.599H396.202V493.875Z" fill="#9F616A"/>
<path d="M381.964 529.618C384.702 529.863 398.403 530.949 399.092 527.806C399.452 525.698 399.305 523.535 398.664 521.495C397.349 508.385 396.857 508.24 396.561 508.156C396.095 508.017 394.734 508.668 392.524 510.091L392.385 510.182L392.354 510.343C392.316 510.552 391.337 515.361 386.696 514.619C383.516 514.114 382.483 513.41 382.155 513.066C382.496 512.916 382.788 512.672 382.996 512.362C383.171 512.053 383.278 511.71 383.308 511.356C383.339 511.002 383.292 510.646 383.172 510.312C382.528 508.394 381.704 506.543 380.71 504.782L380.501 504.415L362.303 516.699L351.064 519.911C350.647 520.029 350.262 520.24 349.937 520.527C349.612 520.815 349.356 521.171 349.188 521.57C348.956 522.125 348.902 522.738 349.033 523.325C349.165 523.911 349.476 524.442 349.922 524.844C351.964 526.68 356.016 529.824 360.274 530.214C361.405 530.321 362.904 530.359 364.586 530.359C371.613 530.359 381.874 529.632 381.95 529.617L381.964 529.618Z" fill="#090814"/>
<path d="M447.264 464.553L434.567 474.307L448.402 492.327L461.098 482.573L447.264 464.553Z" fill="#9F616A"/>
<path d="M457.737 501.578C460.062 500.109 471.592 492.621 470.223 489.715C469.232 487.819 467.797 486.192 466.041 484.972C457.018 475.373 456.545 475.556 456.254 475.663C455.796 475.839 455.115 477.178 454.228 479.656L454.174 479.809L454.25 479.954C454.342 480.138 456.491 484.558 452.37 486.792C449.541 488.329 448.294 488.398 447.821 488.329C448.001 488.003 448.083 487.631 448.058 487.259C448.009 486.906 447.884 486.568 447.692 486.268C447.5 485.968 447.246 485.713 446.946 485.521C445.266 484.393 443.485 483.425 441.624 482.63L441.242 482.462L434.277 503.29L427.311 512.682C427.052 513.031 426.875 513.433 426.793 513.86C426.711 514.286 426.726 514.726 426.837 515.145C426.989 515.728 427.32 516.248 427.782 516.633C428.244 517.018 428.814 517.25 429.414 517.295C432.151 517.509 437.282 517.532 440.891 515.252C441.847 514.648 443.063 513.769 444.401 512.744C449.975 508.46 457.675 501.638 457.728 501.584L457.737 501.578Z" fill="#090814"/>
<path d="M375.035 333.779L430.747 336.814C430.747 336.814 439.38 365.199 427.046 378.776L419.645 417.035L452.951 462.696L431.978 476.277L392.731 417.035L402.369 498.487L373.997 496.015L360.425 410.863L375.035 333.779Z" fill="#090814"/>
<path d="M397.44 222.036C397.44 222.036 402.372 213.401 423.345 214.631L428.278 225.737C428.278 225.737 443.081 229.439 443.081 251.652C443.081 273.864 435.679 340.508 435.679 340.508L371.58 347.484L396.889 231.804L397.432 222.029L397.44 222.036Z" fill="#E6E6E6"/>
<path d="M331.836 300.835C327.118 303.007 324.48 307.275 325.941 310.373C327.402 313.47 332.417 314.22 337.135 312.055C339.035 311.215 340.696 309.913 341.967 308.269L361.837 298.817L356.943 289.287L337.866 299.621C335.781 299.524 333.704 299.942 331.818 300.837L331.836 300.835Z" fill="#9F616A"/>
<path d="M344.146 307.802L392.118 292.13L392.171 292.076L428.715 258.253C430.226 256.855 431.434 255.162 432.266 253.279C433.097 251.396 433.533 249.362 433.548 247.303C433.563 245.244 433.155 243.204 432.351 241.309C431.547 239.414 430.362 237.704 428.871 236.285C427.381 234.866 425.615 233.768 423.683 233.058C421.751 232.348 419.694 232.043 417.639 232.159C415.584 232.276 413.575 232.813 411.736 233.737C409.897 234.661 408.267 235.953 406.946 237.532L379.504 270.315L339.981 295.999L344.149 307.802L344.146 307.802Z" fill="#E6E6E6"/>
<path d="M132.622 341.138C151.414 341.138 166.647 325.899 166.647 307.1C166.647 288.302 151.414 273.063 132.622 273.063C113.83 273.063 98.5962 288.302 98.5962 307.1C98.5962 325.899 113.83 341.138 132.622 341.138Z" fill="#6C63FF"/>
<path d="M111.885 314.705C111.885 314.142 112.023 313.586 112.286 313.088C112.549 312.589 112.93 312.163 113.396 311.845C113.862 311.528 114.398 311.329 114.958 311.266C115.518 311.203 116.085 311.278 116.609 311.484L125.255 302.83C125.05 302.305 124.975 301.738 125.038 301.179C125.101 300.619 125.299 300.083 125.617 299.617C125.934 299.152 126.36 298.771 126.858 298.508C127.355 298.245 127.91 298.107 128.473 298.107C129.036 298.107 129.591 298.245 130.089 298.508C130.587 298.771 131.013 299.152 131.33 299.617C131.647 300.083 131.846 300.619 131.909 301.179C131.971 301.738 131.897 302.305 131.691 302.83L136.888 308.028C137.7 307.711 138.601 307.711 139.414 308.028L146.683 300.758C146.393 300.019 146.366 299.202 146.607 298.446C146.848 297.689 147.343 297.038 148.007 296.603C148.671 296.168 149.465 295.975 150.255 296.056C151.044 296.138 151.782 296.489 152.343 297.051C152.905 297.612 153.256 298.35 153.337 299.14C153.419 299.93 153.226 300.724 152.791 301.389C152.356 302.053 151.705 302.548 150.949 302.789C150.192 303.03 149.376 303.003 148.637 302.713L141.369 309.983C141.574 310.507 141.648 311.073 141.585 311.633C141.521 312.192 141.322 312.727 141.005 313.192C140.688 313.657 140.262 314.037 139.765 314.3C139.267 314.563 138.713 314.7 138.151 314.7C137.588 314.7 137.034 314.563 136.536 314.3C136.039 314.037 135.613 313.657 135.296 313.192C134.979 312.727 134.78 312.192 134.716 311.633C134.653 311.073 134.727 310.507 134.932 309.983L129.736 304.786C128.924 305.104 128.023 305.104 127.211 304.786L118.559 313.438C118.745 313.911 118.825 314.42 118.792 314.927C118.759 315.435 118.615 315.929 118.369 316.375C118.124 316.82 117.783 317.206 117.371 317.505C116.959 317.803 116.487 318.007 115.987 318.102C115.487 318.197 114.973 318.181 114.481 318.054C113.988 317.927 113.529 317.693 113.138 317.369C112.746 317.044 112.431 316.637 112.214 316.177C111.998 315.717 111.885 315.214 111.885 314.705ZM114.65 314.705C114.65 314.842 114.692 314.975 114.768 315.088C114.844 315.201 114.952 315.289 115.079 315.341C115.205 315.392 115.343 315.405 115.477 315.378C115.611 315.351 115.733 315.285 115.83 315.188C115.926 315.092 115.991 314.969 116.018 314.835C116.044 314.701 116.03 314.562 115.978 314.436C115.926 314.31 115.837 314.203 115.724 314.127C115.61 314.051 115.477 314.011 115.341 314.01C115.157 314.011 114.981 314.085 114.852 314.215C114.722 314.345 114.65 314.522 114.65 314.705ZM137.459 311.246C137.459 311.383 137.499 311.518 137.576 311.632C137.652 311.747 137.761 311.836 137.888 311.888C138.016 311.941 138.156 311.954 138.29 311.927C138.425 311.9 138.549 311.833 138.646 311.736C138.743 311.638 138.809 311.514 138.835 311.379C138.862 311.244 138.847 311.104 138.794 310.977C138.741 310.85 138.651 310.742 138.536 310.666C138.421 310.59 138.287 310.55 138.149 310.551C137.966 310.552 137.79 310.626 137.661 310.756C137.531 310.886 137.459 311.062 137.459 311.246ZM127.784 301.565C127.783 301.701 127.823 301.835 127.898 301.95C127.973 302.064 128.081 302.153 128.207 302.207C128.333 302.26 128.472 302.274 128.606 302.249C128.74 302.223 128.864 302.158 128.961 302.061C129.059 301.965 129.125 301.842 129.153 301.708C129.18 301.574 129.167 301.435 129.116 301.308C129.064 301.182 128.976 301.073 128.863 300.997C128.749 300.92 128.616 300.879 128.479 300.878C128.296 300.878 128.121 300.95 127.991 301.079C127.861 301.207 127.787 301.382 127.784 301.565ZM149.212 299.492C149.212 299.629 149.254 299.762 149.33 299.875C149.406 299.988 149.514 300.076 149.641 300.127C149.767 300.179 149.905 300.192 150.039 300.165C150.173 300.138 150.295 300.072 150.392 299.975C150.488 299.879 150.553 299.756 150.58 299.622C150.606 299.488 150.592 299.349 150.54 299.223C150.488 299.097 150.399 298.99 150.286 298.914C150.172 298.838 150.039 298.797 149.903 298.797C149.812 298.797 149.721 298.815 149.637 298.85C149.553 298.885 149.477 298.936 149.413 299.001C149.348 299.065 149.297 299.142 149.263 299.226C149.228 299.311 149.211 299.401 149.212 299.492Z" fill="white"/>
<path d="M10.7046 352.367C16.6165 352.367 21.4091 347.572 21.4091 341.658C21.4091 335.744 16.6165 330.95 10.7046 330.95C4.79259 330.95 0 335.744 0 341.658C0 347.572 4.79259 352.367 10.7046 352.367Z" fill="#E6E6E6"/>
<path d="M16.5821 341.659L132.006 341.722C132.308 341.722 132.553 341.379 132.553 340.958C132.553 340.536 132.308 340.193 132.006 340.193L16.5821 340.13C16.2799 340.13 16.0353 340.473 16.0353 340.894C16.0353 341.316 16.2799 341.659 16.5821 341.659Z" fill="#E6E6E6"/>
<path d="M224.376 443.632C243.168 443.632 258.402 428.392 258.402 409.594C258.402 390.796 243.168 375.557 224.376 375.557C205.584 375.557 190.351 390.796 190.351 409.594C190.351 428.392 205.584 443.632 224.376 443.632Z" fill="#6C63FF"/>
<path d="M209.859 424.806C208.577 424.804 207.348 424.294 206.441 423.387C205.534 422.48 205.024 421.251 205.022 419.968V399.225C205.023 397.942 205.532 396.711 206.439 395.803C207.346 394.895 208.576 394.385 209.859 394.383H238.89C240.173 394.384 241.404 394.895 242.311 395.802C243.219 396.71 243.729 397.941 243.73 399.225V419.968C243.728 421.251 243.217 422.481 242.309 423.388C241.402 424.294 240.173 424.804 238.89 424.806H209.859ZM207.786 399.225V419.968C207.787 420.518 208.006 421.045 208.394 421.434C208.783 421.823 209.309 422.042 209.859 422.043H238.89C239.44 422.043 239.967 421.825 240.355 421.436C240.744 421.048 240.963 420.521 240.963 419.971V399.225C240.963 398.675 240.745 398.147 240.356 397.757C239.967 397.368 239.44 397.148 238.89 397.147H209.859C209.309 397.15 208.783 397.37 208.395 397.759C208.007 398.149 207.788 398.675 207.786 399.225ZM223.527 412.071L211.086 402.39C210.796 402.165 210.608 401.834 210.562 401.47C210.517 401.106 210.617 400.739 210.842 400.449C211.067 400.16 211.398 399.971 211.762 399.925C212.126 399.88 212.493 399.981 212.782 400.206L224.376 409.226L235.967 400.206C236.111 400.095 236.275 400.012 236.45 399.964C236.625 399.916 236.808 399.902 236.988 399.925C237.169 399.947 237.343 400.005 237.501 400.095C237.659 400.185 237.797 400.305 237.909 400.448C238.021 400.592 238.103 400.756 238.151 400.931C238.199 401.106 238.213 401.289 238.19 401.469C238.168 401.65 238.11 401.824 238.02 401.982C237.931 402.14 237.811 402.279 237.667 402.391L225.227 412.071C224.983 412.259 224.684 412.36 224.377 412.36C224.069 412.36 223.77 412.259 223.527 412.071Z" fill="white"/>
<path d="M334.886 420.417C340.798 420.417 345.591 415.622 345.591 409.708C345.591 403.794 340.798 399 334.886 399C328.974 399 324.182 403.794 324.182 409.708C324.182 415.622 328.974 420.417 334.886 420.417Z" fill="#E6E6E6"/>
<path d="M325.6 410.153L205.574 410.217C205.257 410.217 205 409.874 205 409.452C205 409.03 205.257 408.688 205.574 408.688L325.6 408.625C325.917 408.625 326.174 408.967 326.174 409.389C326.174 409.811 325.917 410.153 325.6 410.153Z" fill="#E6E6E6"/>
<path d="M244 228L327 303" stroke="#E6E6E6" stroke-width="2"/>
<path d="M179.705 361.417C185.617 361.417 190.409 356.622 190.409 350.708C190.409 344.794 185.617 340 179.705 340C173.793 340 169 344.794 169 350.708C169 356.622 173.793 361.417 179.705 361.417Z" fill="#6C63FF"/>
<path d="M247.705 242.417C253.617 242.417 258.409 237.622 258.409 231.708C258.409 225.794 253.617 221 247.705 221C241.793 221 237 225.794 237 231.708C237 237.622 241.793 242.417 247.705 242.417Z" fill="#6C63FF"/>
<path d="M194.705 138.417C200.617 138.417 205.409 133.622 205.409 127.708C205.409 121.794 200.617 117 194.705 117C188.793 117 184 121.794 184 127.708C184 133.622 188.793 138.417 194.705 138.417Z" fill="#6C63FF"/>
</svg>
