<svg width="577" height="516" viewBox="0 0 577 516" fill="none" xmlns="http://www.w3.org/2000/svg">
<path d="M3.5 512V198L287.5 0L568.5 198V512H3.5Z" fill="#E6E6E6"/>
<g clip-path="url(#clip0_6_395)">
<path d="M568.499 197.675C568.295 197.675 568.096 197.612 567.928 197.496L291.37 4.89208C290.528 4.30868 289.528 3.9969 288.504 3.99865C287.48 4.0004 286.481 4.31558 285.641 4.90185L11.0744 197.494C10.8572 197.646 10.5884 197.706 10.3271 197.66C10.0659 197.614 9.83349 197.466 9.68117 197.249C9.52884 197.032 9.46902 196.763 9.51488 196.502C9.56073 196.241 9.7085 196.008 9.92567 195.856L284.493 3.26415C285.668 2.4435 287.067 2.00237 288.501 2.00001C289.934 1.99765 291.334 2.43419 292.513 3.25097L569.071 195.854C569.246 195.976 569.378 196.15 569.446 196.352C569.515 196.553 569.518 196.771 569.454 196.974C569.39 197.178 569.263 197.355 569.091 197.481C568.92 197.607 568.712 197.675 568.499 197.675Z" fill="#3F3D56" stroke="black" stroke-width="4"/>
<path d="M26.764 204.502L288.776 10.319L552.776 218.319L302.276 366.819L166.276 335.819L26.764 204.502Z" fill="#E6E6E6"/>
<path d="M177.756 458.541H48.3152C47.5204 458.542 46.7332 458.386 45.9986 458.083C45.264 457.78 44.5964 457.334 44.0341 456.773C43.4717 456.211 43.0256 455.544 42.7212 454.81C42.4168 454.076 42.2601 453.289 42.2601 452.494C42.2601 451.699 42.4168 450.912 42.7212 450.178C43.0256 449.443 43.4717 448.777 44.0341 448.215C44.5964 447.653 45.264 447.208 45.9986 446.904C46.7332 446.601 47.5204 446.445 48.3152 446.446H177.756C178.55 446.445 179.338 446.601 180.072 446.904C180.807 447.208 181.474 447.653 182.037 448.215C182.599 448.777 183.045 449.443 183.35 450.178C183.654 450.912 183.811 451.699 183.811 452.494C183.811 453.289 183.654 454.076 183.35 454.81C183.045 455.544 182.599 456.211 182.037 456.773C181.474 457.334 180.807 457.78 180.072 458.083C179.338 458.386 178.55 458.542 177.756 458.541Z" fill="#6C63FF"/>
<path d="M94.7555 432.541H48.3152C47.5204 432.542 46.7332 432.386 45.9986 432.083C45.264 431.78 44.5964 431.334 44.0341 430.773C43.4717 430.211 43.0256 429.544 42.7212 428.81C42.4168 428.076 42.2601 427.289 42.2601 426.494C42.2601 425.699 42.4168 424.912 42.7212 424.178C43.0256 423.443 43.4717 422.777 44.0341 422.215C44.5964 421.653 45.264 421.208 45.9986 420.904C46.7332 420.601 47.5204 420.445 48.3152 420.446H94.7555C95.5503 420.445 96.3375 420.601 97.0721 420.904C97.8067 421.208 98.4743 421.653 99.0367 422.215C99.5991 422.777 100.045 423.443 100.35 424.178C100.654 424.912 100.811 425.699 100.811 426.494C100.811 427.289 100.654 428.076 100.35 428.81C100.045 429.544 99.5991 430.211 99.0367 430.773C98.4743 431.334 97.8067 431.78 97.0721 432.083C96.3375 432.386 95.5503 432.542 94.7555 432.541Z" fill="#6C63FF"/>
<path d="M444.999 28.6746L445.322 28.6834C446.928 28.7648 448.451 29.4383 449.594 30.5809C450.737 31.7234 451.41 33.2471 451.491 34.8533L451.5 35.1756V244.865L295.223 311.603C294.348 311.971 293.409 312.161 292.46 312.16V312.159L292.459 312.16C291.655 312.161 290.858 312.024 290.102 311.757L289.78 311.635L128.5 244.715V35.1756C128.502 33.4521 129.188 31.7995 130.406 30.5809C131.549 29.4383 133.073 28.7648 134.679 28.6834L135.001 28.6746H444.999Z" fill="white" stroke="black"/>
<path d="M134.779 30.6805C133.666 30.7368 132.612 31.2038 131.821 31.9949C130.977 32.8387 130.502 33.9823 130.5 35.1756V243.379L290.539 309.785L290.776 309.874C291.966 310.29 293.27 310.252 294.439 309.763L449.5 243.544V35.1756C449.499 33.9823 449.024 32.8387 448.18 31.9949C447.389 31.2038 446.334 30.7368 445.222 30.6805L444.999 30.6746H135.001L134.779 30.6805ZM453.5 246.185L452.893 246.445L296.005 313.444L296 313.446C294.88 313.918 293.676 314.159 292.46 314.158L292.459 314.159V314.158C291.281 314.159 290.114 313.931 289.023 313.486L289.018 313.484L127.117 246.306L126.5 246.051V35.1736L126.511 34.7518C126.617 32.6521 127.499 30.6604 128.992 29.1668C130.586 27.5735 132.746 26.6772 134.999 26.6746H445.001L445.423 26.6854C447.523 26.7919 449.514 27.6732 451.008 29.1668C452.601 30.7601 453.498 32.9204 453.5 35.1736V246.185Z" fill="#3F3D56" stroke="black" stroke-width="2"/>
<path d="M566.5 195.675H566.3L451.5 244.695L294.43 311.765C293.816 312.023 293.158 312.158 292.492 312.161C291.826 312.165 291.166 312.037 290.55 311.785L128.5 244.555L10.8799 195.755L10.7002 195.675H10.5C8.64412 195.677 6.86483 196.415 5.55252 197.727C4.24021 199.04 3.50206 200.819 3.5 202.675V506.675C3.50206 508.531 4.24021 510.31 5.55252 511.622C6.86483 512.935 8.64412 513.673 10.5 513.675H566.5C568.356 513.673 570.135 512.935 571.447 511.622C572.76 510.31 573.498 508.531 573.5 506.675V202.675C573.498 200.819 572.76 199.04 571.447 197.727C570.135 196.415 568.356 195.677 566.5 195.675ZM571.5 506.675C571.499 508.001 570.973 509.272 570.035 510.21C569.097 511.147 567.826 511.674 566.5 511.675H10.5C9.17408 511.674 7.90262 511.147 6.96506 510.21C6.02749 509.272 5.50053 508.001 5.5 506.675V202.675C5.50181 201.382 6.00336 200.14 6.89978 199.208C7.7962 198.276 9.0181 197.727 10.3101 197.675L128.5 246.715L289.78 313.635C291.526 314.345 293.482 314.334 295.22 313.605L451.5 246.865L566.7 197.675C567.99 197.73 569.208 198.281 570.102 199.213C570.996 200.144 571.497 201.384 571.5 202.675V506.675Z" fill="#5B53B2" stroke="black" stroke-width="4"/>
<path d="M273.553 266.748C267.587 266.759 261.78 264.83 257.007 261.251L256.711 261.029L194.4 213.322C191.514 211.111 189.092 208.353 187.272 205.206C185.452 202.059 184.27 198.584 183.793 194.98C183.316 191.376 183.554 187.713 184.492 184.201C185.43 180.689 187.051 177.396 189.263 174.51C191.474 171.624 194.231 169.202 197.378 167.382C200.526 165.563 204 164.38 207.604 163.903C211.208 163.426 214.871 163.664 218.383 164.602C221.895 165.54 225.188 167.161 228.074 169.373L268.435 200.32L363.812 75.9336C366.024 73.0486 368.783 70.6275 371.931 68.8087C375.079 66.9898 378.554 65.8088 382.158 65.333C385.762 64.8572 389.425 65.096 392.937 66.0358C396.448 66.9756 399.741 68.5979 402.626 70.8101L402.033 71.6152L402.641 70.8218C408.46 75.2943 412.268 81.8926 413.229 89.1691C414.189 96.4455 412.224 103.806 407.765 109.635L295.577 255.944C292.983 259.315 289.646 262.044 285.827 263.917C282.007 265.791 277.807 266.759 273.553 266.748Z" fill="#6C63FF"/>
</g>
<path d="M3.5 198V512.5H572.5C571.167 406.333 569.3 194.8 572.5 198" stroke="black" stroke-width="7"/>
<defs>
<clipPath id="clip0_6_395">
<rect width="570" height="511.675" fill="white" transform="translate(3.5 2)"/>
</clipPath>
</defs>
</svg>
